<?xml version="1.0" encoding="UTF-8" standalone="no"?>
<svg
   xmlns:dc="http://purl.org/dc/elements/1.1/"
   xmlns:cc="http://creativecommons.org/ns#"
   xmlns:rdf="http://www.w3.org/1999/02/22-rdf-syntax-ns#"
   xmlns:svg="http://www.w3.org/2000/svg"
   xmlns="http://www.w3.org/2000/svg"
   width="210mm"
   height="297mm"
   viewBox="0 0 210 297"
   version="1.1"
   id="svg8"
   >
  <defs
     id="defs2" />
  <metadata
     id="metadata5">
    <rdf:RDF>
      <cc:Work
         rdf:about="">
        <dc:format>image/svg+xml</dc:format>
        <dc:type
           rdf:resource="http://purl.org/dc/dcmitype/StillImage" />
        <dc:title></dc:title>
      </cc:Work>
    </rdf:RDF>
  </metadata>
  <g
    transform="translate(50, 50) rotate(45) translate(5)"
    style="fill:#b155a9; stroke-width:0.0"
    id="layer2">
    <path
       id="path2"
       d="M 0,7.7928821e-7 C 0,-15.0 20,-10.00000000 30,7.7928821e-7"
       />
    <path
       id="path3"
       d="M 0,-7.7928821e-7 C 0,15.0 20,10.00000000 30,-7.7928821e-7"
       />
    </g>
  <g
    transform="translate(50, 50) rotate(90) translate(5)"
    style="fill:#b155a9; stroke-width:0.0"
    id="layer3">
    <path
       id="path3"
       d="M 0,7.7928821e-7 C 0,-15.0 20,-10.00000000 30,7.7928821e-7"
       />
    <path
       id="path4"
       d="M 0,-7.7928821e-7 C 0,15.0 20,10.00000000 30,-7.7928821e-7"
       />
    </g>
  <g
    transform="translate(50, 50) rotate(135) translate(5)"
    style="fill:#b155a9; stroke-width:0.0"
    id="layer4">
    <path
       id="path4"
       d="M 0,7.7928821e-7 C 0,-15.0 20,-10.00000000 30,7.7928821e-7"
       />
    <path
       id="path5"
       d="M 0,-7.7928821e-7 C 0,15.0 20,10.00000000 30,-7.7928821e-7"
       />
    </g>
  <g
    transform="translate(50, 50) rotate(180) translate(5)"
    style="fill:#b155a9; stroke-width:0.0"
    id="layer5">
    <path
       id="path5"
       d="M 0,7.7928821e-7 C 0,-15.0 20,-10.00000000 30,7.7928821e-7"
       />
    <path
       id="path6"
       d="M 0,-7.7928821e-7 C 0,15.0 20,10.00000000 30,-7.7928821e-7"
       />
    </g>
  <g
    transform="translate(50, 50) rotate(225) translate(5)"
    style="fill:#b155a9; stroke-width:0.0"
    id="layer6">
    <path
       id="path6"
       d="M 0,7.7928821e-7 C 0,-15.0 20,-10.00000000 30,7.7928821e-7"
       />
    <path
       id="path7"
       d="M 0,-7.7928821e-7 C 0,15.0 20,10.00000000 30,-7.7928821e-7"
       />
    </g>
  <g
    transform="translate(50, 50) rotate(270) translate(5)"
    style="fill:#b155a9; stroke-width:0.0"
    id="layer7">
    <path
       id="path7"
       d="M 0,7.7928821e-7 C 0,-15.0 20,-10.00000000 30,7.7928821e-7"
       />
    <path
       id="path8"
       d="M 0,-7.7928821e-7 C 0,15.0 20,10.00000000 30,-7.7928821e-7"
       />
    </g>
  <g
    transform="translate(50, 50) rotate(315) translate(5)"
    style="fill:#b155a9; stroke-width:0.0"
    id="layer8">
    <path
       id="path8"
       d="M 0,7.7928821e-7 C 0,-15.0 20,-10.00000000 30,7.7928821e-7"
       />
    <path
       id="path9"
       d="M 0,-7.7928821e-7 C 0,15.0 20,10.00000000 30,-7.7928821e-7"
       />
    </g>
  <g
    transform="translate(50, 50) rotate(360) translate(5)"
    style="fill:#b155a9; stroke-width:0.0"
    id="layer9">
    <path
       id="path9"
       d="M 0,7.7928821e-7 C 0,-15.0 20,-10.00000000 30,7.7928821e-7"
       />
    <path
       id="path10"
       d="M 0,-7.7928821e-7 C 0,15.0 20,10.00000000 30,-7.7928821e-7"
       />
    </g>
  <g
    transform="translate(50, 50) rotate(405) translate(4)"
    style="fill:#ec57f5; stroke-width:0.0; fill-opacity:0.7; mix-blend-mode: normal;"
    id="layer10">
    <path
       id="path10"
       d="M 0,7.7928821e-7 C 0,-15.0 20,-10.00000000 20,7.7928821e-7"
       />
    <path
       id="path11"
       d="M 0,-7.7928821e-7 C 0,15.0 20,10.00000000 20,-7.7928821e-7"
       />
    </g>
  <g
    transform="translate(50, 50) rotate(450) translate(4)"
    style="fill:#ec57f5; stroke-width:0.0; fill-opacity:0.7; mix-blend-mode: normal;"
    id="layer11">
    <path
       id="path11"
       d="M 0,7.7928821e-7 C 0,-15.0 20,-10.00000000 20,7.7928821e-7"
       />
    <path
       id="path12"
       d="M 0,-7.7928821e-7 C 0,15.0 20,10.00000000 20,-7.7928821e-7"
       />
    </g>
  <g
    transform="translate(50, 50) rotate(495) translate(4)"
    style="fill:#ec57f5; stroke-width:0.0; fill-opacity:0.7; mix-blend-mode: normal;"
    id="layer12">
    <path
       id="path12"
       d="M 0,7.7928821e-7 C 0,-15.0 20,-10.00000000 20,7.7928821e-7"
       />
    <path
       id="path13"
       d="M 0,-7.7928821e-7 C 0,15.0 20,10.00000000 20,-7.7928821e-7"
       />
    </g>
  <g
    transform="translate(50, 50) rotate(540) translate(4)"
    style="fill:#ec57f5; stroke-width:0.0; fill-opacity:0.7; mix-blend-mode: normal;"
    id="layer13">
    <path
       id="path13"
       d="M 0,7.7928821e-7 C 0,-15.0 20,-10.00000000 20,7.7928821e-7"
       />
    <path
       id="path14"
       d="M 0,-7.7928821e-7 C 0,15.0 20,10.00000000 20,-7.7928821e-7"
       />
    </g>
  <g
    transform="translate(50, 50) rotate(585) translate(4)"
    style="fill:#ec57f5; stroke-width:0.0; fill-opacity:0.7; mix-blend-mode: normal;"
    id="layer14">
    <path
       id="path14"
       d="M 0,7.7928821e-7 C 0,-15.0 20,-10.00000000 20,7.7928821e-7"
       />
    <path
       id="path15"
       d="M 0,-7.7928821e-7 C 0,15.0 20,10.00000000 20,-7.7928821e-7"
       />
    </g>
  <g
    transform="translate(50, 50) rotate(630) translate(4)"
    style="fill:#ec57f5; stroke-width:0.0; fill-opacity:0.7; mix-blend-mode: normal;"
    id="layer15">
    <path
       id="path15"
       d="M 0,7.7928821e-7 C 0,-15.0 20,-10.00000000 20,7.7928821e-7"
       />
    <path
       id="path16"
       d="M 0,-7.7928821e-7 C 0,15.0 20,10.00000000 20,-7.7928821e-7"
       />
    </g>
  <g
    transform="translate(50, 50) rotate(675) translate(4)"
    style="fill:#ec57f5; stroke-width:0.0; fill-opacity:0.7; mix-blend-mode: normal;"
    id="layer16">
    <path
       id="path16"
       d="M 0,7.7928821e-7 C 0,-15.0 20,-10.00000000 20,7.7928821e-7"
       />
    <path
       id="path17"
       d="M 0,-7.7928821e-7 C 0,15.0 20,10.00000000 20,-7.7928821e-7"
       />
    </g>
  <g
    transform="translate(50, 50) rotate(720) translate(4)"
    style="fill:#ec57f5; stroke-width:0.0; fill-opacity:0.7; mix-blend-mode: normal;"
    id="layer17">
    <path
       id="path17"
       d="M 0,7.7928821e-7 C 0,-15.0 20,-10.00000000 20,7.7928821e-7"
       />
    <path
       id="path18"
       d="M 0,-7.7928821e-7 C 0,15.0 20,10.00000000 20,-7.7928821e-7"
       />
    </g>
  <g
    transform="translate(50, 50)"
    style="fill:#ff00ff ; stroke-width:0.0; fill-opacity:0.8; mix-blend-mode: hard-light;"
    id="layer17">
    <circle
       style="stroke:#4d4d4d;stroke-linecap:round;stroke-linejoin:bevel"
       id="path17"
       cx="0"
       cy="7.792882e-07"
       r="10" />
    </g>

</svg>
